<mxfile host="app.diagrams.net" modified="2021-06-08T06:50:18.765Z" agent="5.0 (Macintosh; Intel Mac OS X 10_15_7) AppleWebKit/537.36 (KHTML, like Gecko) Chrome/86.0.4240.80 Safari/537.36" etag="bSR7jrypW_MCGA6CgbMH" version="14.6.13" type="github" pages="2">
  <diagram id="NdDg-pIEJNMxbpomTVMd" name="main process">
    <mxGraphModel dx="1639" dy="902" grid="1" gridSize="10" guides="1" tooltips="1" connect="1" arrows="1" fold="1" page="1" pageScale="1" pageWidth="1100" pageHeight="850" background="#FFFFFF" math="0" shadow="0">
      <root>
        <mxCell id="0" />
        <mxCell id="1" parent="0" />
        <mxCell id="epy-HNv6PY6IYM6R7f2u-70" value="" style="endArrow=none;html=1;strokeColor=#CCCCCC;" edge="1" parent="1">
          <mxGeometry width="50" height="50" relative="1" as="geometry">
            <mxPoint x="320" y="1630" as="sourcePoint" />
            <mxPoint x="320" y="10" as="targetPoint" />
          </mxGeometry>
        </mxCell>
        <mxCell id="epy-HNv6PY6IYM6R7f2u-67" style="edgeStyle=orthogonalEdgeStyle;rounded=0;orthogonalLoop=1;jettySize=auto;html=1;exitX=0.5;exitY=1;exitDx=0;exitDy=0;entryX=1;entryY=0.5;entryDx=0;entryDy=0;" edge="1" parent="1" source="epy-HNv6PY6IYM6R7f2u-40" target="epy-HNv6PY6IYM6R7f2u-12">
          <mxGeometry relative="1" as="geometry">
            <mxPoint x="1160" y="310" as="targetPoint" />
            <Array as="points">
              <mxPoint x="868" y="530" />
              <mxPoint x="1150" y="530" />
              <mxPoint x="1150" y="350" />
            </Array>
          </mxGeometry>
        </mxCell>
        <mxCell id="epy-HNv6PY6IYM6R7f2u-68" value="完成修改" style="edgeLabel;html=1;align=center;verticalAlign=middle;resizable=0;points=[];" vertex="1" connectable="0" parent="epy-HNv6PY6IYM6R7f2u-67">
          <mxGeometry x="-0.7124" y="-2" relative="1" as="geometry">
            <mxPoint as="offset" />
          </mxGeometry>
        </mxCell>
        <mxCell id="epy-HNv6PY6IYM6R7f2u-40" value="" style="rounded=1;whiteSpace=wrap;html=1;fillColor=#dae8fc;strokeColor=#6c8ebf;align=center;" vertex="1" parent="1">
          <mxGeometry x="630" y="430" width="476.25" height="80" as="geometry" />
        </mxCell>
        <mxCell id="epy-HNv6PY6IYM6R7f2u-28" style="edgeStyle=orthogonalEdgeStyle;rounded=0;orthogonalLoop=1;jettySize=auto;html=1;exitX=0.5;exitY=1;exitDx=0;exitDy=0;entryX=0.5;entryY=0;entryDx=0;entryDy=0;" edge="1" parent="1" source="epy-HNv6PY6IYM6R7f2u-26" target="epy-HNv6PY6IYM6R7f2u-5">
          <mxGeometry relative="1" as="geometry" />
        </mxCell>
        <mxCell id="epy-HNv6PY6IYM6R7f2u-26" value="" style="rounded=1;whiteSpace=wrap;html=1;fillColor=#dae8fc;strokeColor=#6c8ebf;align=center;" vertex="1" parent="1">
          <mxGeometry x="402.5" y="150" width="477.5" height="70" as="geometry" />
        </mxCell>
        <mxCell id="epy-HNv6PY6IYM6R7f2u-23" style="edgeStyle=orthogonalEdgeStyle;rounded=0;orthogonalLoop=1;jettySize=auto;html=1;exitX=0.25;exitY=1;exitDx=0;exitDy=0;entryX=0.5;entryY=0;entryDx=0;entryDy=0;" edge="1" parent="1" source="epy-HNv6PY6IYM6R7f2u-2" target="epy-HNv6PY6IYM6R7f2u-20">
          <mxGeometry relative="1" as="geometry">
            <Array as="points">
              <mxPoint x="611" y="140" />
              <mxPoint x="502" y="140" />
            </Array>
          </mxGeometry>
        </mxCell>
        <mxCell id="epy-HNv6PY6IYM6R7f2u-24" style="edgeStyle=orthogonalEdgeStyle;rounded=0;orthogonalLoop=1;jettySize=auto;html=1;exitX=0.5;exitY=1;exitDx=0;exitDy=0;entryX=0.5;entryY=0;entryDx=0;entryDy=0;" edge="1" parent="1" source="epy-HNv6PY6IYM6R7f2u-2" target="epy-HNv6PY6IYM6R7f2u-21">
          <mxGeometry relative="1" as="geometry" />
        </mxCell>
        <mxCell id="epy-HNv6PY6IYM6R7f2u-25" style="edgeStyle=orthogonalEdgeStyle;rounded=0;orthogonalLoop=1;jettySize=auto;html=1;exitX=0.75;exitY=1;exitDx=0;exitDy=0;entryX=0.5;entryY=0;entryDx=0;entryDy=0;" edge="1" parent="1" source="epy-HNv6PY6IYM6R7f2u-2" target="epy-HNv6PY6IYM6R7f2u-22">
          <mxGeometry relative="1" as="geometry">
            <Array as="points">
              <mxPoint x="674" y="140" />
              <mxPoint x="782" y="140" />
            </Array>
          </mxGeometry>
        </mxCell>
        <mxCell id="epy-HNv6PY6IYM6R7f2u-2" value="Flight 首页" style="rounded=0;whiteSpace=wrap;html=1;fillColor=#ffe6cc;strokeColor=#d79b00;" vertex="1" parent="1">
          <mxGeometry x="579.9999999999999" y="80" width="125" height="40" as="geometry" />
        </mxCell>
        <mxCell id="epy-HNv6PY6IYM6R7f2u-13" style="edgeStyle=orthogonalEdgeStyle;rounded=0;orthogonalLoop=1;jettySize=auto;html=1;exitX=0.5;exitY=1;exitDx=0;exitDy=0;entryX=0.5;entryY=0;entryDx=0;entryDy=0;" edge="1" parent="1" source="epy-HNv6PY6IYM6R7f2u-5" target="epy-HNv6PY6IYM6R7f2u-12">
          <mxGeometry relative="1" as="geometry" />
        </mxCell>
        <mxCell id="epy-HNv6PY6IYM6R7f2u-5" value="点击 Search 按钮" style="rounded=0;whiteSpace=wrap;html=1;" vertex="1" parent="1">
          <mxGeometry x="578.7499999999999" y="260" width="125" height="40" as="geometry" />
        </mxCell>
        <mxCell id="epy-HNv6PY6IYM6R7f2u-37" style="edgeStyle=orthogonalEdgeStyle;rounded=0;orthogonalLoop=1;jettySize=auto;html=1;exitX=0;exitY=0.25;exitDx=0;exitDy=0;entryX=1;entryY=0.25;entryDx=0;entryDy=0;" edge="1" parent="1" source="epy-HNv6PY6IYM6R7f2u-12" target="epy-HNv6PY6IYM6R7f2u-36">
          <mxGeometry relative="1" as="geometry" />
        </mxCell>
        <mxCell id="epy-HNv6PY6IYM6R7f2u-42" style="edgeStyle=orthogonalEdgeStyle;rounded=0;orthogonalLoop=1;jettySize=auto;html=1;exitX=0.75;exitY=1;exitDx=0;exitDy=0;entryX=0.5;entryY=0;entryDx=0;entryDy=0;" edge="1" parent="1" source="epy-HNv6PY6IYM6R7f2u-12" target="epy-HNv6PY6IYM6R7f2u-40">
          <mxGeometry relative="1" as="geometry" />
        </mxCell>
        <mxCell id="epy-HNv6PY6IYM6R7f2u-47" value="开始修改" style="edgeLabel;html=1;align=center;verticalAlign=middle;resizable=0;points=[];" vertex="1" connectable="0" parent="epy-HNv6PY6IYM6R7f2u-42">
          <mxGeometry x="-0.1014" y="2" relative="1" as="geometry">
            <mxPoint as="offset" />
          </mxGeometry>
        </mxCell>
        <mxCell id="epy-HNv6PY6IYM6R7f2u-45" style="edgeStyle=orthogonalEdgeStyle;rounded=0;orthogonalLoop=1;jettySize=auto;html=1;exitX=0.25;exitY=1;exitDx=0;exitDy=0;entryX=0.5;entryY=0;entryDx=0;entryDy=0;" edge="1" parent="1" source="epy-HNv6PY6IYM6R7f2u-12" target="epy-HNv6PY6IYM6R7f2u-44">
          <mxGeometry relative="1" as="geometry">
            <Array as="points">
              <mxPoint x="610" y="530" />
              <mxPoint x="640" y="530" />
            </Array>
          </mxGeometry>
        </mxCell>
        <mxCell id="epy-HNv6PY6IYM6R7f2u-12" value="Flight Result 页面" style="rounded=0;whiteSpace=wrap;html=1;fillColor=#ffe6cc;strokeColor=#d79b00;" vertex="1" parent="1">
          <mxGeometry x="578.7499999999999" y="330" width="125" height="40" as="geometry" />
        </mxCell>
        <mxCell id="epy-HNv6PY6IYM6R7f2u-14" value="修改出行日期" style="rounded=0;whiteSpace=wrap;html=1;" vertex="1" parent="1">
          <mxGeometry x="666.2499999999999" y="455" width="125" height="40" as="geometry" />
        </mxCell>
        <mxCell id="epy-HNv6PY6IYM6R7f2u-15" value="选择结果排序方式" style="rounded=0;whiteSpace=wrap;html=1;" vertex="1" parent="1">
          <mxGeometry x="806.2499999999999" y="455" width="125" height="40" as="geometry" />
        </mxCell>
        <mxCell id="epy-HNv6PY6IYM6R7f2u-16" value="确认筛选条件" style="rounded=0;whiteSpace=wrap;html=1;" vertex="1" parent="1">
          <mxGeometry x="946.2499999999999" y="455" width="125" height="40" as="geometry" />
        </mxCell>
        <mxCell id="epy-HNv6PY6IYM6R7f2u-30" style="edgeStyle=orthogonalEdgeStyle;rounded=0;orthogonalLoop=1;jettySize=auto;html=1;exitX=0;exitY=0.25;exitDx=0;exitDy=0;entryX=1;entryY=0.25;entryDx=0;entryDy=0;" edge="1" parent="1" source="epy-HNv6PY6IYM6R7f2u-20" target="epy-HNv6PY6IYM6R7f2u-29">
          <mxGeometry relative="1" as="geometry" />
        </mxCell>
        <mxCell id="epy-HNv6PY6IYM6R7f2u-20" value="选择出发/到达地点" style="rounded=0;whiteSpace=wrap;html=1;" vertex="1" parent="1">
          <mxGeometry x="439.9999999999999" y="170" width="125" height="40" as="geometry" />
        </mxCell>
        <mxCell id="epy-HNv6PY6IYM6R7f2u-21" value="选择出行日期，&lt;br&gt;是否往返" style="rounded=0;whiteSpace=wrap;html=1;" vertex="1" parent="1">
          <mxGeometry x="579.9999999999999" y="170" width="125" height="40" as="geometry" />
        </mxCell>
        <mxCell id="epy-HNv6PY6IYM6R7f2u-22" value="确认乘客，仓位信息" style="rounded=0;whiteSpace=wrap;html=1;" vertex="1" parent="1">
          <mxGeometry x="719.9999999999999" y="170" width="125" height="40" as="geometry" />
        </mxCell>
        <mxCell id="epy-HNv6PY6IYM6R7f2u-27" value="确认行程参数" style="text;html=1;align=center;verticalAlign=middle;resizable=0;points=[];autosize=1;strokeColor=none;" vertex="1" parent="1">
          <mxGeometry x="400" y="150" width="90" height="20" as="geometry" />
        </mxCell>
        <mxCell id="epy-HNv6PY6IYM6R7f2u-31" style="edgeStyle=orthogonalEdgeStyle;rounded=0;orthogonalLoop=1;jettySize=auto;html=1;exitX=1;exitY=0.75;exitDx=0;exitDy=0;entryX=0;entryY=0.75;entryDx=0;entryDy=0;" edge="1" parent="1" source="epy-HNv6PY6IYM6R7f2u-29" target="epy-HNv6PY6IYM6R7f2u-20">
          <mxGeometry relative="1" as="geometry" />
        </mxCell>
        <mxCell id="epy-HNv6PY6IYM6R7f2u-29" value="城市/机场信息" style="rounded=0;whiteSpace=wrap;html=1;" vertex="1" parent="1">
          <mxGeometry x="97.49999999999989" y="170" width="125" height="40" as="geometry" />
        </mxCell>
        <mxCell id="epy-HNv6PY6IYM6R7f2u-32" value="搜索地点" style="text;html=1;align=center;verticalAlign=middle;resizable=0;points=[];autosize=1;strokeColor=none;" vertex="1" parent="1">
          <mxGeometry x="290" y="160" width="60" height="20" as="geometry" />
        </mxCell>
        <mxCell id="epy-HNv6PY6IYM6R7f2u-33" value="BE" style="rounded=1;whiteSpace=wrap;html=1;fillColor=#f5f5f5;strokeColor=#666666;fontColor=#333333;" vertex="1" parent="1">
          <mxGeometry x="100" y="10" width="120" height="30" as="geometry" />
        </mxCell>
        <mxCell id="epy-HNv6PY6IYM6R7f2u-34" value="FE" style="rounded=1;whiteSpace=wrap;html=1;fillColor=#f5f5f5;strokeColor=#666666;fontColor=#333333;" vertex="1" parent="1">
          <mxGeometry x="580" y="10" width="120" height="30" as="geometry" />
        </mxCell>
        <mxCell id="epy-HNv6PY6IYM6R7f2u-38" style="edgeStyle=orthogonalEdgeStyle;rounded=0;orthogonalLoop=1;jettySize=auto;html=1;exitX=1;exitY=0.75;exitDx=0;exitDy=0;entryX=0;entryY=0.75;entryDx=0;entryDy=0;" edge="1" parent="1" source="epy-HNv6PY6IYM6R7f2u-36" target="epy-HNv6PY6IYM6R7f2u-12">
          <mxGeometry relative="1" as="geometry" />
        </mxCell>
        <mxCell id="epy-HNv6PY6IYM6R7f2u-36" value="获取航班结果列表" style="rounded=0;whiteSpace=wrap;html=1;" vertex="1" parent="1">
          <mxGeometry x="97.49999999999989" y="330" width="125" height="40" as="geometry" />
        </mxCell>
        <mxCell id="epy-HNv6PY6IYM6R7f2u-39" value="POST search&amp;nbsp;" style="text;html=1;align=center;verticalAlign=middle;resizable=0;points=[];autosize=1;strokeColor=none;" vertex="1" parent="1">
          <mxGeometry x="275" y="320" width="90" height="20" as="geometry" />
        </mxCell>
        <mxCell id="epy-HNv6PY6IYM6R7f2u-41" value="筛选/修改信息" style="text;html=1;align=center;verticalAlign=middle;resizable=0;points=[];autosize=1;strokeColor=none;" vertex="1" parent="1">
          <mxGeometry x="631.25" y="430" width="90" height="20" as="geometry" />
        </mxCell>
        <mxCell id="epy-HNv6PY6IYM6R7f2u-49" style="edgeStyle=orthogonalEdgeStyle;rounded=0;orthogonalLoop=1;jettySize=auto;html=1;exitX=0.5;exitY=1;exitDx=0;exitDy=0;entryX=0.5;entryY=0;entryDx=0;entryDy=0;" edge="1" parent="1" source="epy-HNv6PY6IYM6R7f2u-44" target="epy-HNv6PY6IYM6R7f2u-48">
          <mxGeometry relative="1" as="geometry" />
        </mxCell>
        <mxCell id="epy-HNv6PY6IYM6R7f2u-44" value="选择航班" style="rounded=0;whiteSpace=wrap;html=1;" vertex="1" parent="1">
          <mxGeometry x="577.4999999999999" y="570" width="125" height="40" as="geometry" />
        </mxCell>
        <mxCell id="epy-HNv6PY6IYM6R7f2u-58" style="edgeStyle=orthogonalEdgeStyle;rounded=0;orthogonalLoop=1;jettySize=auto;html=1;exitX=0.5;exitY=1;exitDx=0;exitDy=0;entryX=0.5;entryY=0;entryDx=0;entryDy=0;" edge="1" parent="1" source="epy-HNv6PY6IYM6R7f2u-48" target="epy-HNv6PY6IYM6R7f2u-53">
          <mxGeometry relative="1" as="geometry" />
        </mxCell>
        <mxCell id="epy-HNv6PY6IYM6R7f2u-48" value="信息填写页&lt;br&gt;Fill In Details page" style="rounded=0;whiteSpace=wrap;html=1;fillColor=#ffe6cc;strokeColor=#d79b00;" vertex="1" parent="1">
          <mxGeometry x="577.4999999999999" y="650" width="125" height="40" as="geometry" />
        </mxCell>
        <mxCell id="epy-HNv6PY6IYM6R7f2u-64" style="edgeStyle=orthogonalEdgeStyle;rounded=0;orthogonalLoop=1;jettySize=auto;html=1;exitX=0.5;exitY=1;exitDx=0;exitDy=0;entryX=0.75;entryY=0;entryDx=0;entryDy=0;" edge="1" parent="1" source="epy-HNv6PY6IYM6R7f2u-52" target="epy-HNv6PY6IYM6R7f2u-62">
          <mxGeometry relative="1" as="geometry" />
        </mxCell>
        <mxCell id="epy-HNv6PY6IYM6R7f2u-78" style="edgeStyle=orthogonalEdgeStyle;rounded=0;orthogonalLoop=1;jettySize=auto;html=1;exitX=0;exitY=0.25;exitDx=0;exitDy=0;entryX=1;entryY=0.25;entryDx=0;entryDy=0;" edge="1" parent="1" source="epy-HNv6PY6IYM6R7f2u-52" target="epy-HNv6PY6IYM6R7f2u-77">
          <mxGeometry relative="1" as="geometry" />
        </mxCell>
        <mxCell id="epy-HNv6PY6IYM6R7f2u-52" value="托运行李服务选择" style="rounded=0;whiteSpace=wrap;html=1;" vertex="1" parent="1">
          <mxGeometry x="705.3799999999999" y="920" width="125" height="40" as="geometry" />
        </mxCell>
        <mxCell id="epy-HNv6PY6IYM6R7f2u-59" style="edgeStyle=orthogonalEdgeStyle;rounded=0;orthogonalLoop=1;jettySize=auto;html=1;exitX=0.75;exitY=1;exitDx=0;exitDy=0;entryX=0.5;entryY=0;entryDx=0;entryDy=0;" edge="1" parent="1" source="epy-HNv6PY6IYM6R7f2u-53" target="epy-HNv6PY6IYM6R7f2u-52">
          <mxGeometry relative="1" as="geometry" />
        </mxCell>
        <mxCell id="epy-HNv6PY6IYM6R7f2u-63" style="edgeStyle=orthogonalEdgeStyle;rounded=0;orthogonalLoop=1;jettySize=auto;html=1;exitX=0.5;exitY=1;exitDx=0;exitDy=0;entryX=0.5;entryY=0;entryDx=0;entryDy=0;" edge="1" parent="1" source="epy-HNv6PY6IYM6R7f2u-53" target="epy-HNv6PY6IYM6R7f2u-62">
          <mxGeometry relative="1" as="geometry" />
        </mxCell>
        <mxCell id="epy-HNv6PY6IYM6R7f2u-53" value="" style="rounded=1;whiteSpace=wrap;html=1;fillColor=#dae8fc;strokeColor=#6c8ebf;align=center;" vertex="1" parent="1">
          <mxGeometry x="435" y="730" width="410" height="130" as="geometry" />
        </mxCell>
        <mxCell id="epy-HNv6PY6IYM6R7f2u-61" value="&lt;span style=&quot;background-color: rgb(218 , 232 , 252)&quot;&gt;add to passenger&lt;/span&gt;" style="edgeStyle=orthogonalEdgeStyle;rounded=0;orthogonalLoop=1;jettySize=auto;html=1;exitX=1;exitY=0.5;exitDx=0;exitDy=0;entryX=0.5;entryY=0;entryDx=0;entryDy=0;entryPerimeter=0;" edge="1" parent="1" source="epy-HNv6PY6IYM6R7f2u-54" target="epy-HNv6PY6IYM6R7f2u-55">
          <mxGeometry relative="1" as="geometry" />
        </mxCell>
        <mxCell id="epy-HNv6PY6IYM6R7f2u-54" value="联系人信息填写" style="rounded=0;whiteSpace=wrap;html=1;" vertex="1" parent="1">
          <mxGeometry x="461.8799999999999" y="750" width="125" height="40" as="geometry" />
        </mxCell>
        <mxCell id="epy-HNv6PY6IYM6R7f2u-72" style="edgeStyle=orthogonalEdgeStyle;rounded=0;orthogonalLoop=1;jettySize=auto;html=1;exitX=0;exitY=0.25;exitDx=0;exitDy=0;entryX=1;entryY=0.25;entryDx=0;entryDy=0;" edge="1" parent="1" source="epy-HNv6PY6IYM6R7f2u-55" target="epy-HNv6PY6IYM6R7f2u-71">
          <mxGeometry relative="1" as="geometry" />
        </mxCell>
        <mxCell id="epy-HNv6PY6IYM6R7f2u-55" value="乘客信息填写" style="rounded=0;whiteSpace=wrap;html=1;" vertex="1" parent="1">
          <mxGeometry x="694.3799999999999" y="800" width="125" height="45" as="geometry" />
        </mxCell>
        <mxCell id="epy-HNv6PY6IYM6R7f2u-57" value="信息输入" style="text;html=1;align=center;verticalAlign=middle;resizable=0;points=[];autosize=1;strokeColor=none;" vertex="1" parent="1">
          <mxGeometry x="435" y="730" width="60" height="20" as="geometry" />
        </mxCell>
        <mxCell id="epy-HNv6PY6IYM6R7f2u-81" style="edgeStyle=orthogonalEdgeStyle;rounded=0;orthogonalLoop=1;jettySize=auto;html=1;exitX=0.5;exitY=1;exitDx=0;exitDy=0;entryX=0.5;entryY=0;entryDx=0;entryDy=0;strokeColor=#000000;" edge="1" parent="1" source="epy-HNv6PY6IYM6R7f2u-62" target="epy-HNv6PY6IYM6R7f2u-66">
          <mxGeometry relative="1" as="geometry" />
        </mxCell>
        <mxCell id="epy-HNv6PY6IYM6R7f2u-62" value="点击 Checkout 按钮" style="rounded=0;whiteSpace=wrap;html=1;" vertex="1" parent="1">
          <mxGeometry x="577.8799999999999" y="1000" width="125" height="40" as="geometry" />
        </mxCell>
        <mxCell id="epy-HNv6PY6IYM6R7f2u-65" value="Checkout 页面" style="rounded=0;whiteSpace=wrap;html=1;fillColor=#ffe6cc;strokeColor=#d79b00;" vertex="1" parent="1">
          <mxGeometry x="575.3799999999999" y="1210" width="125" height="40" as="geometry" />
        </mxCell>
        <mxCell id="epy-HNv6PY6IYM6R7f2u-83" style="edgeStyle=orthogonalEdgeStyle;rounded=0;orthogonalLoop=1;jettySize=auto;html=1;exitX=0.5;exitY=1;exitDx=0;exitDy=0;entryX=0.5;entryY=0;entryDx=0;entryDy=0;strokeColor=#000000;" edge="1" parent="1" source="epy-HNv6PY6IYM6R7f2u-66" target="epy-HNv6PY6IYM6R7f2u-82">
          <mxGeometry relative="1" as="geometry" />
        </mxCell>
        <mxCell id="epy-HNv6PY6IYM6R7f2u-66" value="点击 proceed 按钮" style="rounded=0;whiteSpace=wrap;html=1;" vertex="1" parent="1">
          <mxGeometry x="575.3799999999999" y="1070" width="125" height="40" as="geometry" />
        </mxCell>
        <mxCell id="epy-HNv6PY6IYM6R7f2u-73" style="edgeStyle=orthogonalEdgeStyle;rounded=0;orthogonalLoop=1;jettySize=auto;html=1;exitX=1;exitY=0.75;exitDx=0;exitDy=0;entryX=0;entryY=0.75;entryDx=0;entryDy=0;" edge="1" parent="1" source="epy-HNv6PY6IYM6R7f2u-71" target="epy-HNv6PY6IYM6R7f2u-55">
          <mxGeometry relative="1" as="geometry" />
        </mxCell>
        <mxCell id="epy-HNv6PY6IYM6R7f2u-71" value="1. 可用的联系人信息&lt;br&gt;2. 联系人表单配置信息（需要填写的项目）" style="rounded=0;whiteSpace=wrap;html=1;" vertex="1" parent="1">
          <mxGeometry x="79.99999999999989" y="800" width="125" height="45" as="geometry" />
        </mxCell>
        <mxCell id="epy-HNv6PY6IYM6R7f2u-74" value="POST form-config" style="text;html=1;align=center;verticalAlign=middle;resizable=0;points=[];autosize=1;strokeColor=none;" vertex="1" parent="1">
          <mxGeometry x="265" y="810" width="110" height="20" as="geometry" />
        </mxCell>
        <mxCell id="epy-HNv6PY6IYM6R7f2u-76" value="GET passenger/list" style="text;html=1;align=center;verticalAlign=middle;resizable=0;points=[];autosize=1;strokeColor=none;" vertex="1" parent="1">
          <mxGeometry x="260" y="790" width="120" height="20" as="geometry" />
        </mxCell>
        <mxCell id="epy-HNv6PY6IYM6R7f2u-79" style="edgeStyle=orthogonalEdgeStyle;rounded=0;orthogonalLoop=1;jettySize=auto;html=1;exitX=1;exitY=0.75;exitDx=0;exitDy=0;entryX=0;entryY=0.75;entryDx=0;entryDy=0;strokeColor=#000000;" edge="1" parent="1" source="epy-HNv6PY6IYM6R7f2u-77" target="epy-HNv6PY6IYM6R7f2u-52">
          <mxGeometry relative="1" as="geometry" />
        </mxCell>
        <mxCell id="epy-HNv6PY6IYM6R7f2u-77" value="行李服务信息" style="rounded=0;whiteSpace=wrap;html=1;" vertex="1" parent="1">
          <mxGeometry x="79.99999999999989" y="920" width="125" height="40" as="geometry" />
        </mxCell>
        <mxCell id="epy-HNv6PY6IYM6R7f2u-80" value="POST addons" style="text;html=1;align=center;verticalAlign=middle;resizable=0;points=[];autosize=1;strokeColor=none;" vertex="1" parent="1">
          <mxGeometry x="275" y="910" width="90" height="20" as="geometry" />
        </mxCell>
        <mxCell id="epy-HNv6PY6IYM6R7f2u-94" style="edgeStyle=orthogonalEdgeStyle;rounded=0;orthogonalLoop=1;jettySize=auto;html=1;exitX=0.5;exitY=1;exitDx=0;exitDy=0;entryX=0.5;entryY=0;entryDx=0;entryDy=0;strokeColor=#000000;" edge="1" parent="1" source="epy-HNv6PY6IYM6R7f2u-82" target="epy-HNv6PY6IYM6R7f2u-65">
          <mxGeometry relative="1" as="geometry" />
        </mxCell>
        <mxCell id="epy-HNv6PY6IYM6R7f2u-82" value="Booking 页面&lt;br&gt;（加载动画）" style="rounded=0;whiteSpace=wrap;html=1;fillColor=#ffe6cc;strokeColor=#d79b00;" vertex="1" parent="1">
          <mxGeometry x="574.9999999999999" y="1140" width="125" height="40" as="geometry" />
        </mxCell>
        <mxCell id="epy-HNv6PY6IYM6R7f2u-84" value="POST passenger/detail" style="text;html=1;align=center;verticalAlign=middle;resizable=0;points=[];autosize=1;strokeColor=none;" vertex="1" parent="1">
          <mxGeometry x="252.5" y="1080" width="140" height="20" as="geometry" />
        </mxCell>
        <mxCell id="epy-HNv6PY6IYM6R7f2u-85" value="POST create-booking" style="text;html=1;align=center;verticalAlign=middle;resizable=0;points=[];autosize=1;strokeColor=none;" vertex="1" parent="1">
          <mxGeometry x="257.5" y="1110" width="130" height="20" as="geometry" />
        </mxCell>
        <mxCell id="epy-HNv6PY6IYM6R7f2u-86" value="POST query-booking" style="text;html=1;align=center;verticalAlign=middle;resizable=0;points=[];autosize=1;strokeColor=none;" vertex="1" parent="1">
          <mxGeometry x="187.5" y="1140" width="130" height="20" as="geometry" />
        </mxCell>
        <mxCell id="epy-HNv6PY6IYM6R7f2u-90" style="edgeStyle=orthogonalEdgeStyle;rounded=0;orthogonalLoop=1;jettySize=auto;html=1;exitX=0;exitY=0.25;exitDx=0;exitDy=0;entryX=1;entryY=0.25;entryDx=0;entryDy=0;strokeColor=#000000;" edge="1" parent="1" source="epy-HNv6PY6IYM6R7f2u-87" target="epy-HNv6PY6IYM6R7f2u-88">
          <mxGeometry relative="1" as="geometry" />
        </mxCell>
        <mxCell id="epy-HNv6PY6IYM6R7f2u-87" value="点击回退/Cancel 按钮" style="rounded=0;whiteSpace=wrap;html=1;" vertex="1" parent="1">
          <mxGeometry x="575.3799999999999" y="1365" width="125" height="40" as="geometry" />
        </mxCell>
        <mxCell id="epy-HNv6PY6IYM6R7f2u-91" style="edgeStyle=orthogonalEdgeStyle;rounded=0;orthogonalLoop=1;jettySize=auto;html=1;exitX=1;exitY=0.75;exitDx=0;exitDy=0;entryX=0;entryY=0.75;entryDx=0;entryDy=0;strokeColor=#000000;" edge="1" parent="1" source="epy-HNv6PY6IYM6R7f2u-88" target="epy-HNv6PY6IYM6R7f2u-87">
          <mxGeometry relative="1" as="geometry" />
        </mxCell>
        <mxCell id="epy-HNv6PY6IYM6R7f2u-88" value="取消订单" style="rounded=0;whiteSpace=wrap;html=1;" vertex="1" parent="1">
          <mxGeometry x="80.37999999999988" y="1365" width="125" height="40" as="geometry" />
        </mxCell>
        <mxCell id="epy-HNv6PY6IYM6R7f2u-92" value="POST order/cancel" style="text;html=1;align=center;verticalAlign=middle;resizable=0;points=[];autosize=1;strokeColor=none;" vertex="1" parent="1">
          <mxGeometry x="260.38" y="1350" width="120" height="20" as="geometry" />
        </mxCell>
        <mxCell id="epy-HNv6PY6IYM6R7f2u-93" value="pending hub response" style="text;html=1;align=center;verticalAlign=middle;resizable=0;points=[];autosize=1;strokeColor=none;" vertex="1" parent="1">
          <mxGeometry x="322.5" y="1140" width="130" height="20" as="geometry" />
        </mxCell>
        <mxCell id="epy-HNv6PY6IYM6R7f2u-95" value="POST query-booking" style="text;html=1;align=center;verticalAlign=middle;resizable=0;points=[];autosize=1;strokeColor=none;" vertex="1" parent="1">
          <mxGeometry x="262.5" y="1210" width="130" height="20" as="geometry" />
        </mxCell>
      </root>
    </mxGraphModel>
  </diagram>
  <diagram id="TQIVKq9zLP33Q_zMxRzy" name="landing page">
    <mxGraphModel dx="1639" dy="902" grid="1" gridSize="10" guides="1" tooltips="1" connect="1" arrows="1" fold="1" page="1" pageScale="1" pageWidth="1100" pageHeight="850" math="0" shadow="0">
      <root>
        <mxCell id="IwQC_JiHCditmtuwtc2c-0" />
        <mxCell id="IwQC_JiHCditmtuwtc2c-1" parent="IwQC_JiHCditmtuwtc2c-0" />
      </root>
    </mxGraphModel>
  </diagram>
</mxfile>
